PathFileType	4	(X/Y/Z)	C:\Users\WrightLab\Desktop\Jo\P5V22.trc
DataRate	CameraRate	NumFrames	NumMarkers	Units	OrigDataRate	OrigDataStartFrame	OrigNumFrames
100.00	100.00	      14	19	mm	100.00	966	      1103
Frame#	Time	Headset_Front			Headset_Back			Headset_Left			Headset_Right			Left_Shoulder			Right_Shoulder			Sternum			C7			Left Elbow			Right Elbow			Left Wrist			Right Wrist			Left ASIS			Right ASIS			S2			Left Knee			Right Knee			Left Ankle			Right Ankle			
		X1	Y1	Z1	X2	Y2	Z2	X3	Y3	Z3	X4	Y4	Z4	X5	Y5	Z5	X6	Y6	Z6	X7	Y7	Z7	X8	Y8	Z8	X9	Y9	Z9	X10	Y10	Z10	X11	Y11	Z11	X12	Y12	Z12	X13	Y13	Z13	X14	Y14	Z14	X15	Y15	Z15	X16	Y16	Z16	X17	Y17	Z17	X18	Y18	Z18	X19	Y19	Z19	

966	9.650	-499.53860	1414.07544	75.00703							-582.50989	1515.26123	2.29970	-208.11244	1517.68970	-129.42915	-598.20331	1427.27380	-133.55667	-394.38126	1295.32312	-84.75799	-424.22809	1533.09570	-257.52908	-239.83968	1312.47241	-39.48436	-726.95917	1183.19019	-81.89544	-86.85380	1266.86646	-166.00897	-757.28967	1028.55249	116.92767	-204.28851	930.68683	-94.83883	-495.90790	929.28369	-101.18856	-317.04745	1003.70343	-345.09799	-167.36736	498.98706	-102.79266	-533.52667	490.84445	-169.98032	-115.37357	96.21482	-251.73177	-449.03668	92.03956	-189.63023	
967	9.660	-500.87567	1414.40869	74.76018							-583.28027	1515.21094	2.73222	-208.83928	1517.46729	-129.49756	-599.22565	1427.32336	-133.43977	-395.46927	1294.94617	-84.40926	-425.06558	1532.90686	-257.23737	-240.68533	1312.43872	-40.11721	-727.92816	1183.11243	-82.38551	-87.92844	1266.26648	-166.51352	-758.16547	1028.47729	116.93000	-205.01782	930.43427	-95.09224	-496.56332	929.22467	-100.78967	-318.03140	1003.17841	-344.66910	-167.83897	499.19870	-102.94152	-533.88483	490.95712	-169.12115	-115.44373	96.36459	-251.87131	-449.00674	91.96140	-189.64854	
968	9.670	-501.67703	1414.09058	75.35645							-583.95282	1515.20398	3.06327	-210.28435	1517.67004	-129.95804	-600.56738	1427.05884	-133.23808	-395.95428	1295.07654	-84.67205	-426.28598	1533.18347	-257.02213	-241.81516	1312.08032	-39.85992	-728.80548	1182.76904	-82.37891	-87.94376	1266.76428	-167.17137	-759.26526	1028.56055	115.97812	-205.54346	930.26672	-95.46181	-497.18576	929.32660	-100.64288	-318.72659	1002.99463	-344.90460	-168.34981	499.14886	-102.99878	-534.92834	490.75217	-168.98705	-115.45446	96.38017	-251.86183	-448.83664	92.15771	-189.72810	
969	9.680	-502.12350	1413.63794	73.66186							-584.78760	1514.95813	3.64081	-211.11301	1517.87048	-130.26450	-601.52740	1426.80066	-133.02538	-397.01138	1294.57227	-84.77627	-427.24432	1532.90686	-256.66452	-242.79564	1312.15881	-39.55134	-729.58002	1182.71631	-82.67451	-90.33002	1266.46667	-166.67195	-759.44769	1028.22583	116.20040	-206.43517	930.50616	-96.20161	-497.66385	929.60413	-100.18503	-319.70328	1003.23785	-345.41373	-168.74919	499.19940	-103.11697	-535.68579	490.74869	-169.21622	-115.46513	96.42624	-251.83545	-448.97464	91.90701	-189.63275	
970	9.690	-502.87991	1413.67102	73.83583							-585.56396	1514.97058	3.96254	-212.55151	1517.62207	-128.77243	-602.41846	1426.85535	-132.48758	-397.68088	1294.69885	-84.52867	-428.26129	1532.83484	-256.52673	-243.60783	1312.00024	-39.57306	-730.71222	1182.36353	-83.03841	-90.40846	1266.69226	-166.83058	-760.81982	1028.31445	116.00103	-207.17831	930.53186	-96.19972	-498.02866	929.35156	-100.17261	-320.79660	1003.72528	-346.07626	-169.04567	499.16077	-103.43885	-536.07471	490.67474	-169.20731	-115.47106	96.45535	-251.81886	-448.98282	91.91633	-189.62230	
971	9.700	-503.23267	1413.34351	74.06281							-586.37683	1514.79797	3.90243	-212.59210	1517.08728	-128.51233	-602.94061	1427.07166	-132.40645	-398.76926	1295.32507	-84.03005	-429.48929	1533.20325	-256.76004	-244.82344	1311.84436	-39.68786	-731.39893	1181.67432	-82.36832	-91.43113	1267.31152	-166.38797	-761.74554	1028.12683	115.74416	-208.05466	930.20502	-96.71640	-498.77560	929.11499	-99.79642	-321.93378	1003.64447	-346.15399	-169.39772	499.33789	-103.19137	-536.33850	490.58438	-169.09906	-115.75738	96.61739	-251.88484	-448.95108	91.84396	-189.62030	
972	9.710	-504.08322	1413.29724	74.56812							-587.01947	1514.69360	4.17029				-604.26703	1426.48535	-132.22372	-399.79007	1295.05115	-84.55156	-430.39413	1533.05383	-256.42148	-245.99248	1311.98816	-39.93037	-732.49902	1181.91711	-83.40367	-91.87446	1266.82336	-167.63602	-762.52368	1027.85950	115.68708	-208.62666	930.42065	-96.88685	-499.54980	928.52716	-100.13665	-322.65802	1003.41162	-346.04703	-170.32150	499.22348	-104.35292	-537.42523	490.74002	-168.94838	-115.78015	96.79187	-251.76874	-448.93088	91.79168	-189.62915	
973	9.720	-505.56897	1413.65027	73.70174							-587.71771	1514.43823	4.90599	-214.95828	1516.49060	-128.66757	-605.29877	1426.49976	-132.20079	-400.70782	1294.99988	-85.05599	-431.71921	1533.01318	-256.57892	-247.15489	1311.71069	-40.46462	-733.12140	1181.40845	-82.72601	-92.49225	1266.63782	-167.25145	-763.16736	1027.69043	115.25996	-209.12839	930.33563	-97.16454	-500.77347	928.61340	-100.45966	-323.49429	1002.97961	-345.82614	-170.60764	499.55368	-104.08140	-538.16248	490.50525	-168.20248	-115.87080	97.02185	-251.68884	-448.88022	91.73241	-189.61519	
974	9.730	-505.84637	1413.34485	72.52526							-588.39545	1514.58960	4.52255	-215.87878	1516.74268	-129.02336	-606.14587	1426.49207	-131.76343	-401.42279	1294.62659	-84.93049	-432.53143	1532.96667	-256.35489	-247.39494	1311.46118	-40.51305	-734.53839	1182.19580	-82.52208	-93.44796	1266.54419	-167.64435	-763.04474	1027.45178	115.41104	-210.37677	930.29120	-97.60856	-501.39438	928.45660	-100.46017	-324.24127	1003.06403	-345.60202	-171.53122	499.64932	-103.74469	-538.65179	490.70358	-168.30383	-115.87856	97.03672	-251.67999	-448.79654	91.62022	-189.61150	
975	9.740	-506.38251	1412.77991	71.60872							-589.18524	1514.17554	5.16288	-217.90128	1515.91333	-128.02162	-607.13531	1426.19299	-131.65627	-402.54987	1294.38611	-84.70017	-433.83752	1532.85413	-256.42316	-248.32587	1311.63440	-40.94688	-735.14935	1181.07922	-82.59611	-95.66056	1266.38611	-168.16917	-763.95807	1027.43726	115.51041	-211.29350	930.12781	-97.93703	-502.18008	927.89087	-100.58051	-325.54816	1003.59399	-346.53369	-171.92999	499.64090	-103.71265	-539.16223	489.66882	-167.86174	-115.90115	97.06537	-251.66232	-448.72867	91.52459	-189.58607	
976	9.750	-507.63470	1412.62585	72.50523							-589.87347	1514.04260	5.42692	-218.02057	1515.83594	-128.72310	-607.97266	1425.99792	-131.79584	-403.21732	1294.44702	-84.13631	-434.70135	1532.71313	-256.03851	-249.19647	1311.87817	-41.35054	-736.45496	1181.62476	-83.27446	-98.06982	1265.57117	-171.30772	-764.91339	1027.19067	115.36244	-211.76492	930.05548	-98.21080	-502.35312	927.87238	-100.66572	-326.50464	1003.82300	-347.03229	-172.32874	499.79456	-103.73553	-539.65771	489.56927	-167.27296	-115.88916	97.33261	-251.69794	-448.63376	91.45731	-189.57426	
977	9.760	-508.13162	1412.94470	71.82603							-590.48022	1514.05957	5.19099	-218.70357	1516.19055	-129.07195	-608.61969	1426.41919	-131.48843	-403.51505	1294.35938	-84.39735	-435.50403	1532.60730	-255.91177	-249.31865	1311.85413	-41.39236	-736.99750	1180.92444	-83.15861	-98.05225	1265.89258	-170.89249	-765.59631	1027.02466	115.06278	-212.04274	930.07239	-99.16090	-503.00003	927.65167	-100.10092	-327.18274	1003.37860	-347.06055	-172.36992	499.96082	-103.88201	-540.59845	489.72617	-167.21153	-115.99700	97.81927	-251.66695	-448.33334	91.62809	-189.60095	
978	9.770	-508.95172	1412.82642	70.01665							-590.98798	1514.08105	5.58854	-218.70357	1516.19055	-129.07195	-609.72699	1425.99194	-130.76700	-404.26019	1294.32141	-84.46635	-436.81241	1532.69153	-256.15759	-250.82080	1311.68323	-41.54579	-738.26953	1180.99109	-83.97901	-98.59412	1266.13245	-170.69450	-765.01617	1026.93677	115.69846	-213.10706	930.04462	-99.30635	-503.85278	927.41785	-99.78745	-328.12622	1002.92841	-346.99136	-172.56903	500.05301	-103.92001	-540.72607	489.72101	-167.26503	-115.88167	97.68995	-251.54083	-448.17801	91.55538	-189.51190	
979	9.780	-509.66196	1412.69690	69.65189							-591.54346	1513.82153	6.30443	-219.57167	1515.36621	-128.65192	-610.42969	1425.66785	-130.45699	-405.29703	1294.09082	-83.92442	-438.21066	1532.98474	-256.42923	-251.31491	1311.34460	-41.87617	-738.73877	1179.86694	-83.97898	-99.23080	1266.11829	-170.85829	-765.16791	1026.83643	115.40398	-213.68536	929.90332	-99.71053	-504.02448	927.22815	-99.98080	-329.05402	1002.86066	-347.27527	-172.41592	500.20807	-103.97536	-541.11127	489.06525	-167.62616	-116.12100	98.30993	-251.43770	-447.93451	91.38900	-189.41730	
